        <svg id="chicken" viewBox="0 0 500 500" xmlns="http://www.w3.org/2000/svg">
          <circle style="stroke: rgb(0, 0, 0); stroke-linejoin: round; stroke-linecap: round; stroke-width: 4px;" cx="400.18" cy="175.702" r="7.539"/>
          <path style="fill: rgba(255, 255, 255, 0); stroke: rgb(0, 0, 0); stroke-width: 10px; stroke-linejoin: round; stroke-linecap: round;" d="M 285.394 390.53 L 284.867 453.715 L 309.088 455.295"/>
          <path style="fill: rgba(255, 255, 255, 0); stroke: rgb(0, 0, 0); stroke-width: 10px; stroke-linejoin: round; stroke-linecap: round;" d="M 240.638 385.323 L 233.793 453.774 L 254.328 455.88"/>
          <path style="stroke: rgb(0, 0, 0); fill: rgb(2, 1, 1); fill-opacity: 0; stroke-linejoin: round; stroke-linecap: round; stroke-width: 8px;" d="M 441.776 184.185 L 482.847 173.127 L 448.095 196.295 L 482.32 204.193 L 445.989 207.879"/>
          <path style="stroke: rgb(0, 0, 0); fill: rgba(216, 216, 216, 0); fill-opacity: 0; stroke-width: 10px; stroke-linecap: round;" d="M 184.824 296.864 C 154.636 289.317 125.501 285.632 97.419 285.807 C 65.413 286.007 78.401 289.166 170.081 312.134 C 210.472 322.253 187.129 319.796 66.353 287.913 C 1.2 270.714 0.497 277.91 64.246 309.501 C 103.353 328.881 146.179 337.306 192.722 334.775 C 203.075 334.212 192.72 334.739 161.657 336.355 C 128.662 338.072 96.192 329.12 64.246 309.501 C 7.182 274.456 10.517 283.056 74.251 335.302 C 107.081 362.215 149.204 367.48 200.621 351.098" transform="matrix(0.999991, -0.004224, 0.004224, 0.999991, -1.349161, 0.462411)"/>
          <path style="fill: rgba(216, 216, 216, 0); fill-opacity: 0; stroke: rgb(0, 0, 0); stroke-width: 10px; stroke-linejoin: round; stroke-linecap: round;" d="M 428.496 159.496 L 460.615 78.408 C 460.615 78.408 457.982 31.546 439.553 74.196 C 421.124 116.846 411.646 144.753 411.646 144.753 L 443.239 63.139 C 443.239 63.139 431.655 1.007 414.279 57.347 C 396.903 113.687 392.691 142.646 392.691 142.646 L 413.753 52.608 C 413.753 52.608 387.952 -32.692 379.001 48.922 C 370.05 130.536 377.948 140.54 377.948 140.54 L 366.793 144.311 C 344.854 154.842 333.796 172.042 333.621 195.912 C 333.521 209.499 321.586 215.993 297.817 215.394 C 251.88 214.237 214.846 241.442 186.716 297.007"/>
          <path style="stroke: rgb(0, 0, 0); stroke-width: 10px; fill: rgba(216, 216, 216, 0); stroke-linejoin: round; stroke-linecap: round;" d="M 282.644 250.236 L 242.627 274.984 C 211.386 300.609 213.492 310.437 248.945 304.47 C 258.4 302.879 267.175 299.017 275.272 292.886 C 286.362 284.488 274.252 291.333 238.941 313.421 C 209.996 331.527 212.98 338.899 247.892 335.536 C 267.189 333.677 283.687 323.498 297.387 304.997 C 306.634 292.51 297.683 307.077 265.268 340.274 C 247.253 358.723 251.641 358.548 283.697 348.173 C 303.916 341.629 329.191 317.934 340.564 296.045"/>
          <path style="stroke: rgb(0, 0, 0); stroke-width: 10px; stroke-linejoin: round; stroke-linecap: round; fill: rgba(216, 216, 216, 0);" d="M 200.406 351.241 C 210.235 363.352 223.399 376.515 238.844 384.413 C 252.529 391.411 267.798 393.166 284.653 389.679 C 335.43 379.173 367.549 334.241 381.01 254.884 C 383.381 240.902 394.79 232.477 415.235 229.61 C 426.998 227.96 437.879 220.764 445.774 209.075"/>
          <path style="fill: rgb(216, 216, 216); stroke: rgb(0, 0, 0); stroke-width: 10px; stroke-linejoin: round; stroke-linecap: round;" d="M 442.615 183.45"/>
          <path style="stroke: rgb(0, 0, 0); fill: rgba(216, 216, 216, 0); stroke-width: 10px; stroke-linejoin: round; stroke-linecap: round;" d="M 429.978 159.756 L 442.089 182.397"/>
        </svg>