<svg viewBox="130 70 270 250" xmlns="http://www.w3.org/2000/svg" height="30px">
        <path style="fill: rgb(216, 216, 216); stroke: rgb(255, 255, 255); stroke-opacity: 0.5;" d="M 219.658 166.481 L 221.28 163.642 C 224.931 147.957 252.38 136.193 278.477 135.246 C 281.611 135.132 284.721 135.538 287.807 136.463"/>
        <g transform="matrix(0.366751, 0, 0, -0.366751, 141.78598, 275.592651)" fill="#000000" stroke="none" style="">
          <path style="fill: rgb(150, 90, 62); stroke: rgb(255, 255, 255); stroke-opacity: 0;" d="M 110.572 312.994 C 129.375 294.559 164.769 279.075 218.966 284.237 C 229.52 285.242 260.49 295.934 311.875 316.312 C 361.029 335.805 405.64 364.194 445.708 401.479 C 456.929 411.92 476.101 397.542 503.223 358.343 C 503.628 357.758 488.88 346.697 458.981 325.161 C 441.583 312.63 450.8 269.125 486.632 194.646 C 490.667 186.259 482.924 154.921 463.405 100.631 C 451.936 68.73 413.961 48.084 349.481 38.691 C 291.257 30.21 234.111 44.22 178.042 80.722 C 113.547 122.709 91.795 206.032 110.572 312.994 Z"/>
          <path d="M258 446 c-90 -32 -133 -60 -152 -99 -44 -93 -25 -197 50 -271 l46 -46 -31 0 c-17 0 -31 -4 -31 -9 0 -11 144 -17 270 -13 50 2 90 8 90 13 0 5 -17 9 -37 9 l-37 0 33 24 c133 98 129 301 -8 387 -56 36 -102 37 -193 5z m157 -17 c16 -24 -47 -68 -149 -104 -60 -21 -85 -45 -47 -45 40 0 163 54 198 87 34 31 37 32 55 17 23 -22 23 -27 -4 -39 -29 -13 -34 -46 -14 -96 20 -50 20 -82 0 -126 -68 -141 -299 -89 -333 76 -17 86 2 149 56 182 77 48 221 77 238 48z"/>
          <path d="M147 304 c-9 -10 2 -24 18 -24 9 0 12 6 9 15 -6 16 -17 19 -27 9z"/>
          <path d="M550 20 c0 -5 7 -10 15 -10 8 0 15 5 15 10 0 6 -7 10 -15 10 -8 0 -15 -4 -15 -10z"/>
        </g>
      </svg>