<svg id="eakWLOvVAxj1" xmlns="http://www.w3.org/2000/svg" xmlns:xlink="http://www.w3.org/1999/xlink" viewBox="0 0 798.681270 647.008610" shape-rendering="geometricPrecision" text-rendering="geometricPrecision"><polygon id="eakWLOvVAxj2" points="126.832000,0 74.020000,103.009000 84.681000,103.009000 84.681000,187.009000 30.953000,187.009000 0,247.381000 383.530000,444.017000 510.363000,196.636000 126.832000,0" fill="rgb(242,242,242)" stroke="none" stroke-width="1"/><rect id="eakWLOvVAxj3" width="588" height="295" rx="0" ry="0" transform="matrix(1 0 0 1 115.68099999999998 67.00860000000000)" fill="rgb(63,61,86)" stroke="none" stroke-width="1"/><rect id="eakWLOvVAxj4" width="434" height="1" rx="0" ry="0" transform="matrix(1 0 0 1 198.18100000000001 173.00899999999999)" opacity="0.3" fill="rgb(108,99,255)" stroke="none" stroke-width="1"/><rect id="eakWLOvVAxj5" width="434" height="1" rx="0" ry="0" transform="matrix(1 0 0 1 198.68100000000001 198.00899999999999)" opacity="0.3" fill="rgb(108,99,255)" stroke="none" stroke-width="1"/><rect id="eakWLOvVAxj6" width="434" height="1" rx="0" ry="0" transform="matrix(1 0 0 1 198.68100000000001 248.00899999999999)" opacity="0.3" fill="rgb(108,99,255)" stroke="none" stroke-width="1"/><rect id="eakWLOvVAxj7" width="434" height="1" rx="0" ry="0" transform="matrix(1 0 0 1 198.68100000000001 270.00900000000001)" opacity="0.3" fill="rgb(108,99,255)" stroke="none" stroke-width="1"/><rect id="eakWLOvVAxj8" width="434" height="1" rx="0" ry="0" transform="matrix(1 0 0 1 198.68100000000001 223.00899999999999)" opacity="0.3" fill="rgb(108,99,255)" stroke="none" stroke-width="1"/><ellipse id="eakWLOvVAxj9" rx="186" ry="17" transform="matrix(1 0 0 1 566.68100000000004 630.00900000000001)" fill="rgb(63,61,86)" stroke="none" stroke-width="1"/><polygon id="eakWLOvVAxj10" points="210.722000,270.733000 209.342000,269.285000 273.943000,207.712000 330.889000,248.674000 376.940000,197.618000 397.133000,214.782000 452.062000,181.824000 513.076000,222.833000 608.837000,168.364000 609.825000,170.102000 512.988000,225.184000 452.002000,184.193000 396.931000,217.235000 377.124000,200.399000 331.175000,251.343000 274.121000,210.305000 210.722000,270.733000" fill="rgb(108,99,255)" stroke="none" stroke-width="1"/><path id="eakWLOvVAxj11" d="M597.416000,722.342210C602.116000,739.716090,618.214380,750.476210,618.214380,750.476210C618.214380,750.476210,626.692660,733.067670,621.992700,715.693800C617.292740,698.319930,601.194320,687.559800,601.194320,687.559800C601.194320,687.559800,592.716000,704.968330,597.416000,722.342210Z" transform="matrix(1 0 0 1 -200.65899999999999 -126.49600000000000)" fill="rgb(63,61,86)" stroke="none" stroke-width="1"/><path id="eakWLOvVAxj12" d="M604.322260,718.608380C617.219020,731.162850,618.794260,750.462000,618.794260,750.462000C618.794260,750.462000,599.459730,749.406330,586.562970,736.851850C573.666210,724.297370,572.090970,704.998230,572.090970,704.998230C572.090970,704.998230,591.425510,706.053900,604.322260,718.608380Z" transform="matrix(1 0 0 1 -200.65899999999999 -126.49600000000000)" fill="rgb(108,99,255)" stroke="none" stroke-width="1"/><circle id="eakWLOvVAxj13" r="33.500000" transform="matrix(1 0 0 1 765.18127000000004 52.54527200000003)" opacity="0.4" fill="rgb(108,99,255)" stroke="none" stroke-width="1"/><circle id="eakWLOvVAxj14" r="23.500000" transform="matrix(1 0 0 1 703.68100000000004 67.00860000000000)" opacity="0.4" fill="rgb(108,99,255)" stroke="none" stroke-width="1"/><circle id="eakWLOvVAxj15" r="12.500000" transform="matrix(1 0 0 1 674.18100000000004 500.05574519999999)" opacity="0.4" fill="rgb(108,99,255)" stroke="none" stroke-width="1"/><circle id="eakWLOvVAxj16" r="9.500000" transform="matrix(1 0 0 1 463.10302393499995 565.50900000000001)" opacity="0.4" fill="rgb(108,99,255)" stroke="none" stroke-width="1"/><circle id="eakWLOvVAxj17" r="12.500000" transform="matrix(1 0 0 1 429.18099999999998 438.62247200000002)" opacity="0.4" fill="rgb(108,99,255)" stroke="none" stroke-width="1"/><circle id="eakWLOvVAxj18" r="13" transform="matrix(1 0 0 1 608.18100000000004 173.50899999999999)" fill="rgb(108,99,255)" stroke="none" stroke-width="1"/><path id="eakWLOvVAxj19" d="M724.373180,535.470060L713.352670,536.694560C713.352670,536.694560,708.454670,558.735560,713.352670,588.123560C718.250670,617.511560,724.373180,646.899560,724.373180,646.899560C724.373180,646.899560,729.271180,742.410640,731.720180,743.635150C734.169180,744.859660,756.210180,752.206650,757.434710,744.859650C758.659240,737.512650,758.659210,569.756000,758.659210,569.756000L775.802210,650.573070C775.802210,650.573070,778.251210,752.206650,783.149210,752.206650C788.047210,752.206650,803.965730,750.982150,803.965730,742.410650C803.965730,733.839150,807.639230,621.185050,807.639230,621.185050C807.639230,621.185050,806.414730,537.918980,801.516720,535.469980C796.618710,533.020980,724.373180,535.470060,724.373180,535.470060Z" transform="matrix(1 0 0 1 -200.65899999999999 -126.49600000000000)" fill="rgb(47,46,65)" stroke="none" stroke-width="1"/><path id="eakWLOvVAxj20" d="M734.169190,739.961730C734.169190,739.961730,723.148680,738.737230,720.699670,739.961730C718.250660,741.186230,714.577170,749.757730,720.699670,754.655730C726.822170,759.553730,742.740670,766.900730,747.638670,766.900730C751.035266,766.750075,754.366777,765.917197,757.434670,764.451730L754.985670,743.635220Z" transform="matrix(1 0 0 1 -200.65899999999999 -126.49600000000000)" fill="rgb(47,46,65)" stroke="none" stroke-width="1"/><path id="eakWLOvVAxj21" d="M783.149230,746.084240L784.373730,763.227240C784.373730,763.227240,800.292240,765.676240,801.516730,763.227240C802.741220,760.778240,814.986240,754.655730,816.210730,753.431240C817.435220,752.206750,818.659730,738.737240,811.312730,737.512730C803.965730,736.288220,801.516730,739.961730,801.516730,739.961730Z" transform="matrix(1 0 0 1 -200.65899999999999 -126.49600000000000)" fill="rgb(47,46,65)" stroke="none" stroke-width="1"/><path id="eakWLOvVAxj22" d="M680.291140,432.612000C680.291140,432.612000,650.903140,460.775520,654.576620,475.469530C658.250100,490.163540,687.638150,533.021000,687.638150,533.021000C687.638150,533.021000,715.801670,547.715000,719.475150,533.021000C723.148630,518.327000,699.883150,522.000490,699.883150,522.000490L681.515630,477.918490L702.332150,448.530490Z" transform="matrix(1 0 0 1 -200.65899999999999 -126.49600000000000)" fill="rgb(255,184,184)" stroke="none" stroke-width="1"/><path id="eakWLOvVAxj23" d="M811.604810,389.764710C811.604810,389.764710,838.376110,372.549110,837.756540,360.721650C837.136970,348.894190,820.998050,311.601860,820.998050,311.601860C820.998050,311.601860,808.372680,285.352550,803.353490,296.080100C798.334300,306.807650,809.950280,318.226820,809.950280,318.226820L817.447750,354.809090L797.071670,374.247710Z" transform="matrix(1 0 0 1 -200.65899999999999 -126.49600000000000)" fill="rgb(255,184,184)" stroke="none" stroke-width="1"/><circle id="eakWLOvVAxj24" r="22.041000" transform="matrix(1 0 0 1 544.52999999999997 216.72800000000001)" fill="rgb(255,184,184)" stroke="none" stroke-width="1"/><path id="eakWLOvVAxj25" d="M734.169190,356.692900L737.842690,379.958420L764.781690,375.060420C764.781690,375.060420,763.557190,351.794900,763.557190,349.345900C763.557190,346.896900,734.169190,356.692900,734.169190,356.692900Z" transform="matrix(1 0 0 1 -200.65899999999999 -126.49600000000000)" fill="rgb(255,184,184)" stroke="none" stroke-width="1"/><path id="eakWLOvVAxj26" d="M732.944680,379.958420C732.944680,379.958420,763.557210,372.611420,767.230680,375.060420C770.904150,377.509420,789.271680,379.958420,789.271680,379.958420L810.088200,411.795420L803.965700,452.203950C803.965700,452.203950,802.741190,517.102510,805.190200,528.123020C807.639210,539.143530,821.108710,540.368020,792.945200,542.817020C764.781690,545.266020,759.883670,541.592520,740.291650,546.490530C720.699630,551.388540,704.781120,544.041530,709.679120,539.143530C714.577120,534.245530,723.148640,455.877460,713.352630,448.530450C703.556620,441.183440,699.883120,403.223910,699.883120,403.223910C699.883120,403.223910,732.944680,386.080930,732.944680,379.958420Z" transform="matrix(1 0 0 1 -200.65899999999999 -126.49600000000000)" fill="rgb(208,205,225)" stroke="none" stroke-width="1"/><path id="eakWLOvVAxj27" d="M785.598230,383.631920L789.271730,379.958420L796.618730,372.611420C796.618730,372.611420,820.496500,383.019670,819.272000,386.693180C818.047500,390.366690,810.088240,411.795450,810.088240,411.795450L799.067730,415.468950Z" transform="matrix(1 0 0 1 -200.65899999999999 -126.49600000000000)" fill="rgb(208,205,225)" stroke="none" stroke-width="1"/><path id="eakWLOvVAxj28" d="M714.577170,405.672940L699.883170,403.223940C699.883170,403.223940,688.862660,415.468940,685.189170,420.366940C681.515680,425.264940,674.168660,437.509940,674.168660,437.509940L699.883190,455.877460L719.475190,435.060940Z" transform="matrix(1 0 0 1 -200.65899999999999 -126.49600000000000)" fill="rgb(208,205,225)" stroke="none" stroke-width="1"/><path id="eakWLOvVAxj29" d="M752.881680,316.520470L752.655800,314.754800C751.157630,314.746268,749.667961,314.980350,748.244610,315.447960C748.099016,314.383231,748.192034,313.299448,748.516930,312.275100C747.070588,312.646967,745.692462,313.246119,744.434020,314.050180L743.543550,310.827810L731.302450,316.860650C726.908360,319.026210,722.275630,321.405950,719.763750,325.611650C716.963380,330.300420,717.450750,336.326290,719.365020,341.441170C721.279290,346.556050,724.460300,351.082510,727.010070,355.912170C727.978180,357.988908,729.141519,359.968911,730.484390,361.825460C735.104930,367.585460,744.098980,368.749140,750.613680,365.272750C753.092534,364.078277,755.068526,362.044864,756.191520,359.532820C756.666321,357.974381,757.038515,356.386511,757.305710,354.779410C758.111550,351.487910,759.047010,344.693410,761.720460,342.611150C762.896880,341.694850,765.229340,344.732410,766.204230,343.604070C768.709570,340.704410,768.183770,336.232580,766.627830,332.730510C765.134378,329.213262,763.388781,325.808501,761.404670,322.542810C760.563930,321.229920,752.854580,316.308680,752.881680,316.520470Z" transform="matrix(1 0 0 1 -200.65899999999999 -126.49600000000000)" fill="rgb(47,46,65)" stroke="none" stroke-width="1"/><rect id="eakWLOvVAxj30" width="64" height="64" rx="0" ry="0" transform="matrix(0.99984769515639 0.01745240643728 -0.01745240643728 0.99984769515639 13.24464394565255 114.45539725261231)" fill="rgb(63,61,86)" stroke="none" stroke-width="1"/></svg>